/* XPM */
static char * live_installer_xpm[] = {
"32 32 502 2",
"  	c None",
". 	c #00D567",
"+ 	c #00D164",
"@ 	c #00CA61",
"# 	c #00C45D",
"$ 	c #00BC5A",
"% 	c #00D466",
"& 	c #00D566",
"* 	c #00D165",
"= 	c #00CE63",
"- 	c #00C960",
"; 	c #00C55E",
"> 	c #00C35E",
", 	c #00C05D",
"' 	c #00BF5B",
") 	c #00BD5A",
"! 	c #00B858",
"~ 	c #00B254",
"{ 	c #00AD52",
"] 	c #3FE981",
"^ 	c #3ADE77",
"/ 	c #31D772",
"( 	c #25D46D",
"_ 	c #17D066",
": 	c #0BCD63",
"< 	c #04C960",
"[ 	c #00C65D",
"} 	c #00C35D",
"| 	c #00C25C",
"1 	c #00BA59",
"2 	c #00B757",
"3 	c #00B355",
"4 	c #00AF53",
"5 	c #00AA50",
"6 	c #00A44E",
"7 	c #009E4A",
"8 	c #009848",
"9 	c #009546",
"0 	c #009043",
"a 	c #008A40",
"b 	c #00843D",
"c 	c #00B655",
"d 	c #35B86C",
"e 	c #7BD89A",
"f 	c #AAFCC0",
"g 	c #96F4AE",
"h 	c #66DA88",
"i 	c #52D17A",
"j 	c #3DCA6E",
"k 	c #29C565",
"l 	c #18C15E",
"m 	c #0BBF5C",
"n 	c #03BB5A",
"o 	c #00B857",
"p 	c #00AC51",
"q 	c #00A54F",
"r 	c #00A14C",
"s 	c #009B49",
"t 	c #009747",
"u 	c #009344",
"v 	c #008D42",
"w 	c #008B40",
"x 	c #00843C",
"y 	c #007735",
"z 	c #07833D",
"A 	c #139247",
"B 	c #008F4B",
"C 	c #96020C",
"D 	c #B20815",
"E 	c #801E1B",
"F 	c #3F5A2E",
"G 	c #0D7938",
"H 	c #38AA69",
"I 	c #78D59A",
"J 	c #82DD9E",
"K 	c #7EDC98",
"L 	c #62CF82",
"M 	c #4AC471",
"N 	c #30BC63",
"O 	c #1DB75B",
"P 	c #08B155",
"Q 	c #00A94F",
"R 	c #009F4A",
"S 	c #009746",
"T 	c #009143",
"U 	c #008C41",
"V 	c #00873E",
"W 	c #00833C",
"X 	c #05833D",
"Y 	c #108542",
"Z 	c #158F4A",
"` 	c #259C54",
" .	c #359646",
"..	c #618829",
"+.	c #A29513",
"@.	c #A29313",
"#.	c #860008",
"$.	c #920009",
"%.	c #97020A",
"&.	c #9F030E",
"*.	c #AC0A16",
"=.	c #A21317",
"-.	c #5C3F23",
";.	c #187337",
">.	c #149A4F",
",.	c #47B774",
"'.	c #62C585",
").	c #73CF8E",
"!.	c #43B969",
"~.	c #18AB55",
"{.	c #01A04C",
"].	c #008B3F",
"^.	c #007C38",
"/.	c #0A843F",
"(.	c #1F914D",
"_.	c #2DA05A",
":.	c #299A5C",
"<.	c #5A9D3F",
"[.	c #8B8D1B",
"}.	c #AA9A14",
"|.	c #A79513",
"1.	c #A89815",
"2.	c #A99A15",
"3.	c #A69614",
"4.	c #840008",
"5.	c #8E0009",
"6.	c #90000A",
"7.	c #8E0008",
"8.	c #92020A",
"9.	c #A2040F",
"0.	c #B40415",
"a.	c #AE020F",
"b.	c #513318",
"c.	c #156D30",
"d.	c #0D833D",
"e.	c #3AAA67",
"f.	c #2DAB5E",
"g.	c #12A353",
"h.	c #199A4F",
"i.	c #299452",
"j.	c #45A660",
"k.	c #55AC60",
"l.	c #609944",
"m.	c #988912",
"n.	c #B79B0F",
"o.	c #AB9412",
"p.	c #A99A19",
"q.	c #A7991B",
"r.	c #AC9C1B",
"s.	c #AD9D1B",
"t.	c #AC9D1B",
"u.	c #A49513",
"v.	c #7E0007",
"w.	c #8B0009",
"x.	c #8D0009",
"y.	c #8F000A",
"z.	c #900009",
"A.	c #95030C",
"B.	c #9E010E",
"C.	c #A5040E",
"D.	c #970E13",
"E.	c #701D16",
"F.	c #335429",
"G.	c #3AA262",
"H.	c #6EB779",
"I.	c #8FA338",
"J.	c #A0971D",
"K.	c #AD9917",
"L.	c #B09817",
"M.	c #AD9D1D",
"N.	c #AC9B21",
"O.	c #AE9E23",
"P.	c #AF9E23",
"Q.	c #B09F23",
"R.	c #B1A123",
"S.	c #B1A11F",
"T.	c #A69613",
"U.	c #7A0007",
"V.	c #7F0007",
"W.	c #850008",
"X.	c #890008",
"Y.	c #8A0009",
"Z.	c #8F0009",
"`.	c #910009",
" +	c #8F0008",
".+	c #8B0109",
"++	c #8B020A",
"@+	c #7E0005",
"#+	c #E2CE70",
"$+	c #C9B758",
"%+	c #BAAB41",
"&+	c #B2A231",
"*+	c #B2A22D",
"=+	c #B1A12C",
"-+	c #B2A12C",
";+	c #B3A32E",
">+	c #B3A32F",
",+	c #B5A52F",
"'+	c #B6A530",
")+	c #B5A52D",
"!+	c #B4A320",
"~+	c #790007",
"{+	c #820007",
"]+	c #890009",
"^+	c #8A0008",
"/+	c #8C0009",
"(+	c #870008",
"_+	c #921520",
":+	c #945629",
"<+	c #CBBE47",
"[+	c #E0D187",
"}+	c #D1C16D",
"|+	c #C1B152",
"1+	c #B9AA41",
"2+	c #B9A83D",
"3+	c #B8A83C",
"4+	c #BAAA3D",
"5+	c #BAAA3E",
"6+	c #BCAC3E",
"7+	c #BCAC3C",
"8+	c #BAA933",
"9+	c #B5A51F",
"0+	c #780006",
"a+	c #790006",
"b+	c #7B0007",
"c+	c #880008",
"d+	c #8C010A",
"e+	c #99202D",
"f+	c #996034",
"g+	c #C7BC43",
"h+	c #E5D689",
"i+	c #E4D48B",
"j+	c #D8C97B",
"k+	c #CBBB63",
"l+	c #C4B455",
"m+	c #C3B34F",
"n+	c #C2B24D",
"o+	c #C2B34B",
"p+	c #C2B14A",
"q+	c #C2B147",
"r+	c #BDAC36",
"s+	c #B6A51C",
"t+	c #A59613",
"u+	c #770006",
"v+	c #7C0007",
"w+	c #800007",
"x+	c #830008",
"y+	c #8C000A",
"z+	c #8F050E",
"A+	c #9C2832",
"B+	c #996135",
"C+	c #C5B93A",
"D+	c #E1D17B",
"E+	c #EADA91",
"F+	c #E9DB93",
"G+	c #DDCD81",
"H+	c #D0C16B",
"I+	c #C9BA5D",
"J+	c #C8B858",
"K+	c #C7B653",
"L+	c #C5B64E",
"M+	c #C4B448",
"N+	c #BFAE35",
"O+	c #B6A41B",
"P+	c #A39312",
"Q+	c #810007",
"R+	c #870009",
"S+	c #8E010A",
"T+	c #910710",
"U+	c #9C2C35",
"V+	c #9A6036",
"W+	c #C4B835",
"X+	c #DECC6F",
"Y+	c #E7D887",
"Z+	c #EDDE95",
"`+	c #E7D88F",
" @	c #DACB7A",
".@	c #CFBF64",
"+@	c #CCBA59",
"@@	c #C9B852",
"#@	c #C7B64C",
"$@	c #C4B345",
"%@	c #BFAE31",
"&@	c #B6A519",
"*@	c #A19312",
"=@	c #7D0007",
"-@	c #820008",
";@	c #8F010B",
">@	c #920912",
",@	c #9D2B34",
"'@	c #9A6035",
")@	c #C3B833",
"!@	c #DCCB69",
"~@	c #E4D47F",
"{@	c #EADB8E",
"]@	c #E9DA8E",
"^@	c #DCCD7A",
"/@	c #CFC061",
"(@	c #CBBA55",
"_@	c #C9B84F",
":@	c #C7B64A",
"<@	c #C5B443",
"[@	c #BFAE30",
"}@	c #B6A419",
"|@	c #A09211",
"1@	c #760006",
"2@	c #8E000A",
"3@	c #90010B",
"4@	c #9C2A33",
"5@	c #9A5F35",
"6@	c #C3B832",
"7@	c #DBCA65",
"8@	c #E2D179",
"9@	c #E8D887",
"0@	c #E6D788",
"a@	c #DBCB74",
"b@	c #CFBE5C",
"c@	c #CBBA53",
"d@	c #C9B84D",
"e@	c #C7B649",
"f@	c #C5B342",
"g@	c #BFAD2E",
"h@	c #B5A418",
"i@	c #A09112",
"j@	c #930811",
"k@	c #9D2832",
"l@	c #9B5E34",
"m@	c #C5B831",
"n@	c #DAC961",
"o@	c #E0CF74",
"p@	c #E5D582",
"q@	c #E3D383",
"r@	c #D9C970",
"s@	c #CEBD59",
"t@	c #CABA51",
"u@	c #C8B84C",
"v@	c #C7B647",
"w@	c #C5B440",
"x@	c #BFAD2B",
"y@	c #B5A317",
"z@	c #A19212",
"A@	c #750006",
"B@	c #91010B",
"C@	c #9D2631",
"D@	c #9A5D33",
"E@	c #C5BA30",
"F@	c #D9C75C",
"G@	c #E0CE70",
"H@	c #E3D37D",
"I@	c #E2D27E",
"J@	c #D8C86C",
"K@	c #CEBD57",
"L@	c #CAB94E",
"M@	c #C8B74A",
"N@	c #C7B645",
"O@	c #C4B33E",
"P@	c #BEAD29",
"Q@	c #B3A315",
"R@	c #740006",
"S@	c #92010B",
"T@	c #930710",
"U@	c #9E252F",
"V@	c #9B5B31",
"W@	c #C5BA2E",
"X@	c #D8C659",
"Y@	c #DDCD6A",
"Z@	c #E2D178",
"`@	c #E1D079",
" #	c #D7C768",
".#	c #CDBC55",
"+#	c #CAB94D",
"@#	c #C8B747",
"##	c #C7B542",
"$#	c #C4B43C",
"%#	c #BEAD26",
"&#	c #B4A416",
"*#	c #730006",
"=#	c #940710",
"-#	c #9D232D",
";#	c #9A5931",
">#	c #C5BA2D",
",#	c #D7C555",
"'#	c #DCCB66",
")#	c #E0CF73",
"!#	c #DFCE74",
"~#	c #D4C464",
"{#	c #CDBC51",
"]#	c #CAB849",
"^#	c #C8B645",
"/#	c #C7B63F",
"(#	c #C4B236",
"_#	c #BEAC21",
":#	c #B5A414",
"<#	c #6E0005",
"[#	c #770007",
"}#	c #950610",
"|#	c #9D212B",
"1#	c #9A5830",
"2#	c #C6BA2B",
"3#	c #D6C450",
"4#	c #DDCC6E",
"5#	c #DDCC6F",
"6#	c #D4C360",
"7#	c #CBBA4E",
"8#	c #C9B845",
"9#	c #C7B53F",
"0#	c #C4B335",
"a#	c #C2B029",
"b#	c #BEAC1C",
"c#	c #B7A515",
"d#	c #780007",
"e#	c #94060F",
"f#	c #9D1F2A",
"g#	c #9A552E",
"h#	c #C6BB29",
"i#	c #D5C34C",
"j#	c #D8C75C",
"k#	c #DCCB68",
"l#	c #DAC969",
"m#	c #D2C058",
"n#	c #C9B844",
"o#	c #C7B539",
"p#	c #C4B32E",
"q#	c #C3B124",
"r#	c #C1AF1C",
"s#	c #C0AE18",
"t#	c #B9A815",
"u#	c #91000A",
"v#	c #93010B",
"w#	c #95050F",
"x#	c #9C1D27",
"y#	c #99542C",
"z#	c #C6BB28",
"A#	c #D4C247",
"B#	c #D7C556",
"C#	c #DAC862",
"D#	c #D6C55D",
"E#	c #CDBB46",
"F#	c #C6B432",
"G#	c #C4B225",
"H#	c #C3B01F",
"I#	c #C2AF1A",
"J#	c #C2AF17",
"K#	c #BEAD17",
"L#	c #9E8F12",
"M#	c #720006",
"N#	c #93000B",
"O#	c #95040E",
"P#	c #9C1A26",
"Q#	c #99522A",
"R#	c #C6BB26",
"S#	c #D3C143",
"T#	c #D6C556",
"U#	c #D0BE46",
"V#	c #C7B52D",
"W#	c #C4B220",
"X#	c #C3B11B",
"Y#	c #C2B017",
"Z#	c #C0AE17",
"`#	c #760007",
" $	c #93000A",
".$	c #96030E",
"+$	c #9C1824",
"@$	c #995028",
"#$	c #C5BC25",
"$$	c #D3C13E",
"%$	c #D5C34A",
"&$	c #D1BF45",
"*$	c #CAB72A",
"=$	c #C5B31C",
"-$	c #C3B118",
";$	c #B8A716",
">$	c #880009",
",$	c #92000A",
"'$	c #96020D",
")$	c #9B1521",
"!$	c #994D26",
"~$	c #C5BB24",
"{$	c #D3BF38",
"]$	c #D1BF3C",
"^$	c #CBB929",
"/$	c #C6B31A",
"($	c #C4B118",
"_$	c #BFAD17",
":$	c #A09212",
"<$	c #94000A",
"[$	c #9B0F1C",
"}$	c #984B24",
"|$	c #C6BC23",
"1$	c #D1BD2F",
"2$	c #CDBA24",
"3$	c #C8B619",
"4$	c #AF9F15",
"5$	c #990513",
"6$	c #973B18",
"7$	c #C7BF23",
"8$	c #CFBC24",
"9$	c #CAB719",
"0$	c #A79813",
"a$	c #90000B",
"b$	c #BFB11C",
"c$	c #C2B019",
"                                                                ",
"                                                                ",
"                          . + @ # $                             ",
"                  % & * = - ; > , ' ) ! ~ {                     ",
"        ] ^ / ( _ : < [ } | ' ) 1 2 3 4 5 6 7 8 9 0 a b         ",
"    c d e f g h i j k l m n o 3 p q r s t u v w x y z A B       ",
"  C D E F G H I J K L M N O P Q R S T U V W X Y Z `  ...+.@.    ",
"  #.$.%.&.*.=.-.;.>.,.'.).!.~.{.9 ].^./.(._.:.<.[.}.|.1.2.3.    ",
"  4.5.6.6.7.8.9.0.a.b.c.d.e.f.g.h.i.j.k.l.m.n.o.p.q.r.s.t.u.    ",
"  v.#.w.x.y.6.z.z.A.B.C.D.E.F.G.H.I.J.K.L.M.N.O.O.P.Q.R.S.T.    ",
"  U.V.W.X.Y.x.5.Z.6.`. +.+++@+  #+$+%+&+*+=+-+;+>+,+'+)+!+3.    ",
"  ~+U.v.{+W.]+^+/+5.x.^+#.(+_+:+<+[+}+|+1+2+3+4+5+6+7+8+9+T.    ",
"  0+0+a+b+V.{+W.c+X.c+W.X.d+e+f+g+h+i+j+k+l+m+n+o+p+q+r+s+t+    ",
"    u+u+b+v+v.w+x+4.W.c+y+z+A+B+C+D+E+F+G+H+I+J+K+L+M+N+O+P+    ",
"    u+0+v+v.V.w+Q+4.R+w.S+T+U+V+W+X+Y+Z+`+ @.@+@@@#@$@%@&@*@    ",
"    u+u+=@v.V.Q+-@W.Y.x.;@>@,@'@)@!@~@{@]@^@/@(@_@:@<@[@}@|@    ",
"    1@0+=@V.w+Q+4.(+Y.2@3@>@4@5@6@7@8@9@0@a@b@c@d@e@f@g@h@i@    ",
"    1@0+v+V.w+-@4.(+Y.2@3@j@k@l@m@n@o@p@q@r@s@t@u@v@w@x@y@z@    ",
"    A@0+=@V.Q+-@4.(+w.y.B@j@C@D@E@F@G@H@I@J@K@L@M@N@O@P@Q@      ",
"    R@u+=@w+Q+x+4.(+Y.y.S@T@U@V@W@X@Y@Z@`@ #.#+#@###$#%#&#      ",
"    *#1@=@w+Q+-@4.c+w.6.S@=#-#;#>#,#'#)#!#~#{#]#^#/#(#_#:#      ",
"    <#[#v.w+Q+x+4.(+w.6.S@}#|#1#2#3#n@4#5#6#7#8#9#0#a#b#c#      ",
"    <#d#v.Q+-@4.W.c+/+6.S@e#f#g#h#i#j#k#l#m#n#o#p#q#r#s#t#      ",
"      A@v.w+Q+4.#.X./+u#v#w#x#y#z#A#B#C#D#E#F#G#H#I#J#K#L#      ",
"        M#=@Q+x+#.c+/+u#N#O#P#Q#R#S#3#T#U#V#W#X#Y#Z#&#          ",
"            `#-@4.(+w.6. $.$+$@$#$$$%$&$*$=$-$Y#;$              ",
"                v.#.>$5.,$'$)$!$~${$]$^$/$($_$:$                ",
"                    4.]+,$<$[$}$|$1$2$3$K#4$                    ",
"                        R+ $5$6$7$8$9$0$                        ",
"                          >$a$  b$c$                            ",
"                                                                ",
"                                                                "};
